<svg width="25" height="24" viewBox="0 0 25 24" fill="none" xmlns="http://www.w3.org/2000/svg">
<path d="M14.7997 1.99988H6.79979C6.26936 1.99988 5.76065 2.21059 5.38559 2.58566C5.01052 2.96073 4.7998 3.46943 4.7998 3.99986V19.9997C4.7998 20.5301 5.01052 21.0388 5.38559 21.4139C5.76065 21.789 6.26936 21.9997 6.79979 21.9997H18.7997C19.3301 21.9997 19.8388 21.789 20.2139 21.4139C20.5889 21.0388 20.7997 20.5301 20.7997 19.9997V7.99982L14.7997 1.99988Z" stroke="#3D3D3D" stroke-width="1.66678" stroke-linecap="round" stroke-linejoin="round"/>
<path d="M16.8006 16.9995H8.79968" stroke="#3D3D3D" stroke-width="1.66678" stroke-linecap="round" stroke-linejoin="round"/>
<path d="M16.8006 12.9996H8.79968" stroke="#3D3D3D" stroke-width="1.66678" stroke-linecap="round" stroke-linejoin="round"/>
<path d="M10.7999 8.99921H9.7998H8.79968" stroke="#3D3D3D" stroke-width="1.66678" stroke-linecap="round" stroke-linejoin="round"/>
<path d="M14.7994 1.99959V8.00028H20.8001" stroke="#3D3D3D" stroke-width="1.66678" stroke-linecap="round" stroke-linejoin="round"/>
</svg>
