<svg width="25" height="24" viewBox="0 0 25 24" fill="none" xmlns="http://www.w3.org/2000/svg">
<path fill-rule="evenodd" clip-rule="evenodd" d="M12.2001 3C7.22951 3 3.20007 7.02944 3.20007 12C3.20007 16.9706 7.22951 21 12.2001 21C17.1706 21 21.2001 16.9706 21.2001 12C21.2001 7.02944 17.1706 3 12.2001 3ZM1.20007 12C1.20007 5.92487 6.12494 1 12.2001 1C18.2752 1 23.2001 5.92487 23.2001 12C23.2001 18.0751 18.2752 23 12.2001 23C6.12494 23 1.20007 18.0751 1.20007 12Z" fill="#484C52"/>
<path fill-rule="evenodd" clip-rule="evenodd" d="M12.2001 5C12.7524 5 13.2001 5.44772 13.2001 6V11.382L16.6473 13.1056C17.1413 13.3526 17.3415 13.9532 17.0945 14.4472C16.8475 14.9412 16.2468 15.1414 15.7529 14.8944L11.7529 12.8944C11.4141 12.725 11.2001 12.3788 11.2001 12V6C11.2001 5.44772 11.6478 5 12.2001 5Z" fill="#484C52"/>
</svg>
