<svg width="25" height="24" viewBox="0 0 25 24" fill="none" xmlns="http://www.w3.org/2000/svg">
<path fill-rule="evenodd" clip-rule="evenodd" d="M11.9862 1.21065C12.3473 0.929784 12.8529 0.929784 13.214 1.21065L22.214 8.21065C22.4576 8.4001 22.6001 8.69141 22.6001 9V20C22.6001 20.7957 22.284 21.5587 21.7214 22.1213C21.1588 22.6839 20.3957 23 19.6001 23H5.6001C4.80445 23 4.04139 22.6839 3.47878 22.1213C2.91617 21.5587 2.6001 20.7957 2.6001 20V9C2.6001 8.69141 2.74257 8.4001 2.98616 8.21065L11.9862 1.21065ZM4.6001 9.48908V20C4.6001 20.2652 4.70545 20.5196 4.89299 20.7071C5.08053 20.8946 5.33488 21 5.6001 21H19.6001C19.8653 21 20.1197 20.8946 20.3072 20.7071C20.4947 20.5196 20.6001 20.2652 20.6001 20V9.48908L12.6001 3.26686L4.6001 9.48908Z" fill="#484C52"/>
<path fill-rule="evenodd" clip-rule="evenodd" d="M8.6001 12C8.6001 11.4477 9.04781 11 9.6001 11H15.6001C16.1524 11 16.6001 11.4477 16.6001 12V22C16.6001 22.5523 16.1524 23 15.6001 23C15.0478 23 14.6001 22.5523 14.6001 22V13H10.6001V22C10.6001 22.5523 10.1524 23 9.6001 23C9.04781 23 8.6001 22.5523 8.6001 22V12Z" fill="#484C52"/>
</svg>
