<svg width="21" height="21" viewBox="0 0 21 21" fill="none" xmlns="http://www.w3.org/2000/svg">
<path d="M4.82687 14.6941H3.99347C3.55141 14.6941 3.12745 14.5185 2.81487 14.2059C2.50228 13.8934 2.32668 13.4694 2.32668 13.0273V4.69337C2.32668 4.25131 2.50228 3.82736 2.81487 3.51477C3.12745 3.20219 3.55141 3.02658 3.99347 3.02658H17.3278C17.7699 3.02658 18.1938 3.20219 18.5064 3.51477C18.819 3.82736 18.9946 4.25131 18.9946 4.69337V13.0273C18.9946 13.4694 18.819 13.8934 18.5064 14.2059C18.1938 14.5185 17.7699 14.6941 17.3278 14.6941H16.4944" stroke="#3D3D3D" stroke-width="1.66678" stroke-linecap="round" stroke-linejoin="round"/>
<path d="M10.6605 13.0273L14.8275 18.0277H6.49346L10.6605 13.0273Z" stroke="#3D3D3D" stroke-width="1.66678" stroke-linecap="round" stroke-linejoin="round"/>
</svg>
