<svg width="25" height="24" viewBox="0 0 25 24" fill="none" xmlns="http://www.w3.org/2000/svg">
<path fill-rule="evenodd" clip-rule="evenodd" d="M4.86461 15.4645C5.80229 14.5268 7.07406 14 8.40015 14H16.4001C17.7262 14 18.998 14.5268 19.9357 15.4645C20.8734 16.4021 21.4001 17.6739 21.4001 19V21C21.4001 21.5523 20.9524 22 20.4001 22C19.8479 22 19.4001 21.5523 19.4001 21V19C19.4001 18.2044 19.0841 17.4413 18.5215 16.8787C17.9589 16.3161 17.1958 16 16.4001 16H8.40015C7.6045 16 6.84144 16.3161 6.27883 16.8787C5.71622 17.4413 5.40015 18.2044 5.40015 19V21C5.40015 21.5523 4.95243 22 4.40015 22C3.84786 22 3.40015 21.5523 3.40015 21V19C3.40015 17.6739 3.92693 16.4021 4.86461 15.4645Z" fill="#484C52"/>
<path fill-rule="evenodd" clip-rule="evenodd" d="M12.4001 4C10.7433 4 9.40015 5.34315 9.40015 7C9.40015 8.65685 10.7433 10 12.4001 10C14.057 10 15.4001 8.65685 15.4001 7C15.4001 5.34315 14.057 4 12.4001 4ZM7.40015 7C7.40015 4.23858 9.63872 2 12.4001 2C15.1616 2 17.4001 4.23858 17.4001 7C17.4001 9.76142 15.1616 12 12.4001 12C9.63872 12 7.40015 9.76142 7.40015 7Z" fill="#484C52"/>
</svg>
