<svg width="24" height="24" viewBox="0 0 24 24" fill="none" xmlns="http://www.w3.org/2000/svg">
<path d="M22.9999 21.0005V19.0002C22.9992 18.1139 22.7042 17.2528 22.1611 16.5523C21.6181 15.8517 20.8577 15.3514 19.9995 15.1298" stroke="#484C52" stroke-width="1.66678" stroke-linecap="round" stroke-linejoin="round"/>
<path d="M16.9999 20.9998V18.9998C16.9999 17.9389 16.5785 16.9215 15.8283 16.1714C15.0782 15.4212 14.0607 14.9998 12.9999 14.9998H4.99988C3.93901 14.9998 2.9216 15.4212 2.17145 16.1714C1.42131 16.9215 0.999878 17.9389 0.999878 18.9998V20.9998" stroke="#484C52" stroke-width="1.66678" stroke-linecap="round" stroke-linejoin="round"/>
<path d="M15.9995 3.12971C16.86 3.35004 17.6227 3.8505 18.1674 4.55219C18.7121 5.25388 19.0077 6.11689 19.0077 7.00516C19.0077 7.89344 18.7121 8.75644 18.1674 9.45814C17.6227 10.1598 16.86 10.6603 15.9995 10.8806" stroke="#484C52" stroke-width="1.66678" stroke-linecap="round" stroke-linejoin="round"/>
<path d="M9.00022 11.001C11.2096 11.001 13.0007 9.20989 13.0007 7.00049C13.0007 4.7911 11.2096 3.00003 9.00022 3.00003C6.79082 3.00003 4.99976 4.7911 4.99976 7.00049C4.99976 9.20989 6.79082 11.001 9.00022 11.001Z" stroke="#484C52" stroke-width="1.66678" stroke-linecap="round" stroke-linejoin="round"/>
</svg>
